<svg viewBox="0 0 16 16"  fill="currentColor" xmlns="http://www.w3.org/2000/svg">
	<path d="M10.8574 3.79834H1.83301V13.5353H4.34476V10.3675H9.15776L11.3538 13.5353H14.1663L11.7448 10.3529C12.4968 10.2362 13.0383 9.95876 13.3692 9.52084C13.7 9.08292 13.8655 8.38217 13.8655 7.44792V6.71801C13.8655 6.16326 13.8054 5.72534 13.7001 5.38959C13.5948 5.05384 13.4143 4.76184 13.1586 4.49909C12.8878 4.25092 12.5871 4.07576 12.2261 3.95901C11.8651 3.85684 11.4138 3.79834 10.8574 3.79834ZM10.4513 8.22167H4.34476V5.94426H10.4513C10.7972 5.94426 11.0378 6.00259 11.1582 6.10484C11.2785 6.20701 11.3538 6.39676 11.3538 6.67417V7.49167C11.3538 7.78359 11.2785 7.97334 11.1582 8.07551C11.0378 8.17767 10.7973 8.22151 10.4513 8.22151V8.22167Z" fill="currentColor" />
	<path d="M13.6606 3.63151C14.1206 3.63151 14.4938 3.25843 14.4938 2.79818C14.4938 2.33793 14.1206 1.96484 13.6606 1.96484C13.2003 1.96484 12.8271 2.33793 12.8271 2.79818C12.8271 3.25843 13.2003 3.63151 13.6606 3.63151Z" fill="currentColor" />
</svg>
