<svg viewBox="0 0 16 16"  fill="currentColor" xmlns="http://www.w3.org/2000/svg">
	<path d="M13.8552 3.15112C13.649 2.97633 13.3253 2.95132 12.9906 3.08571H12.99C12.638 3.22697 3.02475 7.35038 2.63341 7.51884C2.56223 7.54358 1.94059 7.77552 2.00462 8.29219C2.06178 8.75801 2.56141 8.95093 2.62242 8.97319L5.06639 9.81002C5.22854 10.3498 5.82627 12.3411 5.95846 12.7665C6.04091 13.0317 6.1753 13.3802 6.41082 13.4519C6.61748 13.5316 6.82305 13.4588 6.95606 13.3544L8.45026 11.9685L10.8624 13.8496L10.9198 13.884C11.0836 13.9565 11.2405 13.9928 11.3903 13.9928C11.506 13.9928 11.617 13.9711 11.7231 13.9277C12.0845 13.7793 12.229 13.4349 12.2442 13.3959L14.0459 4.03082C14.1558 3.53065 14.003 3.27616 13.8552 3.15112ZM7.22181 10.1448L6.39735 12.3433L5.57289 9.59511L11.8938 4.92316L7.22181 10.1448Z" fill="currentColor" />
</svg>
