<svg viewBox="0 0 16 16"  fill="currentColor" xmlns="http://www.w3.org/2000/svg">
<path fill-rule="evenodd" clip-rule="evenodd" d="M14.3604 4.65458C14.4532 4.34554 14.3604 4.11841 13.9193 4.11841H12.4606C12.0897 4.11841 11.9188 4.3146 11.8261 4.531C11.8261 4.531 11.0842 6.33903 10.0334 7.51347C9.6934 7.85345 9.53888 7.96149 9.35342 7.96149C9.26069 7.96149 9.12649 7.85345 9.12649 7.54442V4.65458C9.12649 4.28366 9.01886 4.11841 8.70973 4.11841H6.41753C6.18581 4.11841 6.0464 4.29053 6.0464 4.4537C6.0464 4.80534 6.57173 4.8864 6.62591 5.87538V8.02349C6.62591 8.49443 6.54089 8.57987 6.35543 8.57987C5.86094 8.57987 4.65816 6.76361 3.94466 4.68552C3.80483 4.28157 3.66459 4.11841 3.2918 4.11841H1.83312C1.41636 4.11841 1.33301 4.3146 1.33301 4.531C1.33301 4.91734 1.8276 6.83363 3.63563 9.36797C4.84112 11.0986 6.53922 12.0369 8.08458 12.0369C9.01188 12.0369 9.12649 11.8285 9.12649 11.4696V10.1615C9.12649 9.74472 9.21433 9.66158 9.50783 9.66158C9.72434 9.66158 10.0952 9.76973 10.9607 10.6042C11.9497 11.5931 12.1126 12.0369 12.669 12.0369H14.1277C14.5444 12.0369 14.7528 11.8285 14.6326 11.4173C14.5011 11.0074 14.0289 10.4129 13.4023 9.70794C13.0623 9.30608 12.5523 8.87337 12.3979 8.65707C12.1815 8.37888 12.2433 8.25531 12.3979 8.00817C12.3979 8.00817 14.175 5.50457 14.3604 4.65458Z" fill="currentColor"/>
</svg>
