<svg viewBox="0 0 16 16"  fill="currentColor" xmlns="http://www.w3.org/2000/svg">
	<path fill-rule="evenodd" clip-rule="evenodd" d="M7.40585 4.85871C8.19873 4.94161 8.81571 5.61197 8.816 6.42609V6.42999C8.81223 7.19964 8.25923 7.83684 7.52987 7.97394C7.74404 8.37034 8.03275 8.70236 8.35604 8.96613C8.5052 9.08777 8.6583 9.18822 8.80722 9.27472C8.93317 8.526 9.58393 7.9575 10.3678 7.95929L10.3707 7.95831L10.3697 7.95929C11.0103 7.96056 11.5871 8.34725 11.8307 8.93976C12.074 9.53248 11.9363 10.214 11.481 10.6653C11.1802 10.9636 10.7799 11.12 10.3726 11.1214C9.43425 11.264 8.29101 10.8486 7.4078 10.1282C6.4338 9.33363 5.64337 8.07058 5.64999 6.42316L5.65389 6.34601C5.65718 6.31522 5.66555 6.28572 5.67245 6.25617C5.75761 5.46355 6.4304 4.84766 7.24472 4.84992L7.40585 4.85871Z" fill="currentColor" />
	<path fill-rule="evenodd" clip-rule="evenodd" d="M4.78964 3.0755C6.89703 1.35863 9.87886 1.17014 12.193 2.63312L12.4127 2.77863C14.6483 4.32499 15.6593 7.13601 14.898 9.76593C14.1119 12.4806 11.6266 14.3482 8.80038 14.3489C7.75159 14.3505 6.72152 14.0897 5.80038 13.595L2.566 14.3314C2.29231 14.3934 2.00641 14.2972 1.82577 14.0823C1.64539 13.8674 1.60023 13.5688 1.70858 13.3099L2.92343 10.4056C1.90496 7.92031 2.55931 5.04389 4.58847 3.2464L4.78964 3.0755ZM11.3912 3.9007C9.62384 2.78343 7.34645 2.92744 5.7369 4.23859L5.58261 4.36945C3.96701 5.80076 3.49179 8.12815 4.41659 10.0784C4.50781 10.2708 4.51334 10.4934 4.43124 10.6898L3.65389 12.5443L5.74667 12.0687L5.89022 12.0501C6.03327 12.0457 6.17602 12.0828 6.30038 12.1575C7.05408 12.6118 7.91839 12.8512 8.79843 12.8499L9.00155 12.846C11.0759 12.7599 12.8759 11.3575 13.4576 9.34894C14.039 7.34034 13.2666 5.19311 11.5592 4.01203L11.3912 3.9007Z" fill="currentColor" />
</svg>
