<svg viewBox="0 0 16 16"  fill="currentColor" xmlns="http://www.w3.org/2000/svg">
	<path d="M8 3.16211C8.39032 3.16211 11.8413 3.17027 12.8271 3.43457C13.1926 3.53291 13.5264 3.72559 13.7939 3.99316C14.0613 4.26065 14.2533 4.59379 14.3516 4.95898L14.3994 5.15723C14.6209 6.19813 14.623 7.92151 14.623 7.99902C14.623 8.08305 14.6198 10.0371 14.3516 11.0391C14.2532 11.4045 14.0606 11.7383 13.793 12.0059C13.5255 12.2732 13.1923 12.4652 12.8271 12.5635C11.8421 12.8278 8.39033 12.8359 8 12.8359C7.60946 12.8359 4.15815 12.8288 3.17285 12.5645C2.80745 12.4663 2.47459 12.2734 2.20703 12.0059C1.93953 11.7384 1.7466 11.4054 1.64844 11.04C1.37986 10.0393 1.37696 8.08839 1.37695 8C1.37695 7.91734 1.37986 5.96239 1.64844 4.95996C1.74685 4.5945 1.9394 4.26079 2.20703 3.99316C2.47465 3.72556 2.80839 3.53298 3.17383 3.43457C4.15937 3.17036 7.60952 3.16211 8 3.16211ZM6.96191 6.00684C6.90355 6.00682 6.84646 6.0226 6.7959 6.05176C6.74517 6.08104 6.70303 6.12306 6.67383 6.17383C6.64462 6.22462 6.6287 6.28223 6.62891 6.34082V9.6582C6.62891 9.74645 6.66427 9.83108 6.72656 9.89355C6.78907 9.95607 6.87449 9.99121 6.96289 9.99121C7.02115 9.99105 7.07829 9.97611 7.12891 9.94727L10.002 8.28809C10.0526 8.25883 10.0948 8.21669 10.124 8.16602C10.1532 8.11549 10.1689 8.05832 10.1689 8C10.1689 7.94149 10.1533 7.88368 10.124 7.83301C10.0948 7.78236 10.0526 7.74019 10.002 7.71094L7.12891 6.05176C7.07834 6.02239 7.0204 6.00694 6.96191 6.00684Z" fill="currentColor" />
</svg>
